<?xml version="1.0" encoding="UTF-8"?>
<!DOCTYPE svg PUBLIC "-//W3C//DTD SVG 1.1//EN" "http://www.w3.org/Graphics/SVG/1.1/DTD/svg11.dtd">
<svg version="1.1" xmlns="http://www.w3.org/2000/svg" xmlns:xlink="http://www.w3.org/1999/xlink" x="0" y="0" width="270" height="270" viewBox="0, 0, 270, 270">
  <g id="Layer_1">
    <path d="M133.75,107.824 C104.613,107.824 80.993,84.204 80.993,55.068 C80.993,25.931 104.613,2.311 133.75,2.311 C162.887,2.311 186.507,25.931 186.507,55.068 C186.507,84.204 162.887,107.824 133.75,107.824 z" fill="#FFFFFF"/>
    <path d="M133.75,269.689 C104.613,269.689 80.993,246.069 80.993,216.932 C80.993,187.796 104.613,164.176 133.75,164.176 C162.887,164.176 186.507,187.796 186.507,216.932 C186.507,246.069 162.887,269.689 133.75,269.689 z" fill="#FFFFFF"/>
    <path d="M202.993,146.865 C173.856,146.865 150.236,123.245 150.236,94.108 C150.236,64.971 173.856,41.351 202.993,41.351 C232.13,41.351 255.75,64.971 255.75,94.108 C255.75,123.245 232.13,146.865 202.993,146.865 z" fill="#FFFFFF"/>
    <path d="M202.993,223.527 C173.856,223.527 150.236,199.907 150.236,170.77 C150.236,141.634 173.856,118.014 202.993,118.014 C232.13,118.014 255.75,141.634 255.75,170.77 C255.75,199.907 232.13,223.527 202.993,223.527 z" fill="#FFFFFF"/>
    <path d="M67.007,146.865 C37.87,146.865 14.25,123.245 14.25,94.108 C14.25,64.971 37.87,41.351 67.007,41.351 C96.144,41.351 119.764,64.971 119.764,94.108 C119.764,123.245 96.144,146.865 67.007,146.865 z" fill="#FFFFFF"/>
    <path d="M67.007,223.527 C37.87,223.527 14.25,199.907 14.25,170.77 C14.25,141.634 37.87,118.014 67.007,118.014 C96.144,118.014 119.764,141.634 119.764,170.77 C119.764,199.907 96.144,223.527 67.007,223.527 z" fill="#FFFFFF"/>
    <path d="M133.75,210 C91.5,210 57.25,175.75 57.25,133.5 C57.25,91.25 91.5,57 133.75,57 C176,57 210.25,91.25 210.25,133.5 C210.25,175.75 176,210 133.75,210 z" fill="#FFF086"/>
    <path d="M134.25,210.5 C92,210.5 57.75,176.25 57.75,134 C57.75,91.75 92,57.5 134.25,57.5 C176.5,57.5 210.75,91.75 210.75,134 C210.75,176.25 176.5,210.5 134.25,210.5 z" fill-opacity="0" stroke="#64B06D" stroke-width="15"/>
  </g>
</svg>
